HIERARCHY
ROOT Hips
{
	OFFSET 0.00000 0.00000 0.00000
	CHANNELS 6 Xposition Yposition Zposition Zrotation Yrotation Xrotation 
	JOINT LHipJoint
	{
		OFFSET 0 0 0
		CHANNELS 3 Zrotation Yrotation Xrotation
		JOINT LeftHip
		{
			OFFSET 1.36337 -1.57426 1.11036
			CHANNELS 3 Zrotation Yrotation Xrotation
			JOINT LeftKnee
			{
				OFFSET 2.38468 -6.55187 0.00000
				CHANNELS 3 Zrotation Yrotation Xrotation
				JOINT LeftAnkle
				{
					OFFSET 2.37166 -6.51609 0.00000
					CHANNELS 3 Zrotation Yrotation Xrotation
					JOINT LeftToe
					{
						OFFSET 0.29078 -0.79891 2.01393
						CHANNELS 3 Zrotation Yrotation Xrotation
						End Site
						{
							OFFSET 0.00000 -0.00000 1.07924
						}
					}
				}
			}
		}
	}
	JOINT RHipJoint
	{
		OFFSET 0 0 0
		CHANNELS 3 Zrotation Yrotation Xrotation
		JOINT RightHip
		{
			OFFSET -1.36349 -1.57426 1.11036
			CHANNELS 3 Zrotation Yrotation Xrotation
			JOINT RightKnee
			{
				OFFSET -2.29562 -6.30717 0.00000
				CHANNELS 3 Zrotation Yrotation Xrotation
				JOINT RightAnkle
				{
					OFFSET -2.40985 -6.62100 0.00000
					CHANNELS 3 Zrotation Yrotation Xrotation
					JOINT RightToe
					{
						OFFSET -0.23197 -0.63733 1.92232
						CHANNELS 3 Zrotation Yrotation Xrotation
						End Site
						{
							OFFSET -0.00000 -0.00000 1.01562
						}
					}
				}
			}
		}
	}
	JOINT lowerback
	{
		OFFSET 0 0 0
		CHANNELS 3 Zrotation Yrotation Xrotation
		JOINT Chest
		{
			OFFSET -0.08565 2.03602 -0.24562
			CHANNELS 3 Zrotation Yrotation Xrotation
			JOINT Chest2
			{
				OFFSET -0.00036 2.05693 0.00216
				CHANNELS 3 Zrotation Yrotation Xrotation
				JOINT lowerneck
				{
					OFFSET 0 0 0
					CHANNELS 3 Zrotation Yrotation Xrotation
					JOINT Neck
					{
						OFFSET -0.03664 1.69515 0.31789
						CHANNELS 3 Zrotation Yrotation Xrotation
						JOINT Head
						{
							OFFSET 0.00932 1.70181 -0.46013
							CHANNELS 3 Zrotation Yrotation Xrotation
							End Site
							{
								OFFSET 0.01243 1.77620 -0.19377
							}
						}
					}
				}
				JOINT LeftCollar
				{
					OFFSET 0 0 0
					CHANNELS 3 Zrotation Yrotation Xrotation
					JOINT LeftShoulder
					{
						OFFSET 3.74344 0.81315 -0.36647
CHANNELS 3 Zrotation Xrotation Yrotation
						JOINT LeftElbow
						{
OFFSET 0 -4.971850 -0.000000
CHANNELS 3 Zrotation Xrotation Yrotation
							JOINT LeftWrist
							{
OFFSET 0 -3.358110 0.000000
CHANNELS 3 Zrotation Xrotation Yrotation
								JOINT lhand
								{
									OFFSET 0 0 0
CHANNELS 3 Zrotation Xrotation Yrotation
									JOINT LFingers
									{
OFFSET 0 -0.622780 0.000000
CHANNELS 3 Zrotation Xrotation Yrotation
										End Site
										{
OFFSET 0 -0.502100 0.000000
										}
									}
								}
								JOINT LThumb
								{
OFFSET 0 0.000000 0.000000
CHANNELS 3 Zrotation Xrotation Yrotation
									End Site
									{
OFFSET 0 -0.509760 0.509760
									}
								}
							}
						}
					}
				}
				JOINT RightCollar
				{
					OFFSET 0 0 0
					CHANNELS 3 Zrotation Yrotation Xrotation
					JOINT RightShoulder
					{
						OFFSET -3.75385 0.50666 -0.06525
CHANNELS 3 Zrotation Xrotation Yrotation
						JOINT RightElbow
						{
OFFSET 0 -4.964930 -0.000000
CHANNELS 3 Zrotation Xrotation Yrotation
							JOINT RightWrist
							{
OFFSET 0 -3.349290 0.000000
CHANNELS 3 Zrotation Xrotation Yrotation
								JOINT rhand
								{
									OFFSET 0 0 0
CHANNELS 3 Zrotation Xrotation Yrotation
									JOINT RFingers
									{
OFFSET 0 -0.638040 0.000000
CHANNELS 3 Zrotation Xrotation Yrotation
										End Site
										{
OFFSET 0 -0.514410 0.000000
										}
									}
								}
								JOINT RThumb
								{
OFFSET 0 0.000000 0.000000
CHANNELS 3 Zrotation Xrotation Yrotation
									End Site
									{
OFFSET 0 -0.522260 0.522260
									}
								}
							}
						}
					}
				}
			}
		}
	}
}
MOTION
Frames: 7
Frame Time: 0.008333333333333333
38.868434 14.194076 -4.101593 176.903083 13.354891 -163.382140 0.000000 0.000000 0.000000 -10.064301 -2.891817 -66.220337 13.802043 19.052941 71.598989 1.049819 -3.938205 -18.450615 0.496715 -4.517257 -12.536865 0.000000 0.000000 0.000000 9.296868 -12.292856 -61.481938 -18.457236 -19.942544 85.484982 -0.380052 16.490825 -15.082110 -0.122591 2.183760 -6.016708 -6.684283 1.803792 28.186426 -3.908665 1.588185 6.314591 -1.174028 1.487427 -8.458851 -2.167237 2.463794 -31.267630 -5.106409 5.588904 13.024650 -0.541677 1.971650 9.192604 0.000000 0.000000 0.000000 37.777431 -17.072824 -54.442464 52.357812 -53.902919 28.068489 27.024896 -27.888646 14.452258 0.000000 0.000000 0.000000 -7.125000 0.000000 0.000000 -0.324401 13.843625 -0.237399 0.000000 0.000000 0.000000 -19.297088 -11.729829 43.010617 -65.308867 -57.565853 -38.791587 -17.843647 -6.571342 18.425878 0.000000 0.000000 0.000000 7.125000 0.000000 0.000000 10.065721 49.005314 -1.003381
38.846127 14.246090 -4.183315 177.563601 13.906151 -162.973778 0.000000 0.000000 0.000000 -9.780050 -2.040573 -66.186229 13.772690 19.043629 71.509137 1.087670 -4.384821 -18.739036 0.455821 -4.328402 -12.003000 0.000000 0.000000 0.000000 7.168793 -12.655010 -62.226067 -18.613384 -19.953768 85.942766 0.697995 20.870651 -8.352883 -0.312077 3.586170 -9.915702 -6.897526 2.079475 28.216875 -3.956848 1.890243 6.357325 -1.212168 1.635818 -8.434238 -1.941157 2.530692 -31.057322 -5.202032 5.579618 12.661371 -0.614719 1.987530 9.040015 0.000000 0.000000 0.000000 40.091386 -17.204493 -55.959543 52.315461 -53.887499 28.034222 26.144812 -28.289349 14.196194 0.000000 0.000000 0.000000 -7.125000 0.000000 0.000000 -0.899104 14.243077 -0.650251 0.000000 0.000000 0.000000 -18.647523 -11.318946 43.285663 -66.320375 -57.771140 -39.646289 -17.508671 -6.541243 18.301076 0.000000 0.000000 0.000000 7.125000 0.000000 0.000000 10.345367 48.828269 -0.986473
38.843377 14.294378 -4.253741 178.274037 14.129579 -162.441097 0.000000 0.000000 0.000000 -9.261811 -1.727827 -66.165488 13.679647 19.014011 71.223664 1.116349 -4.354393 -18.996336 0.488810 -4.482760 -12.439093 0.000000 0.000000 0.000000 5.012265 -12.592490 -62.045453 -18.186903 -19.921027 84.692200 1.007841 22.029058 -6.322006 -0.387999 3.999722 -11.076057 -6.815280 2.116497 28.062917 -3.875109 1.974265 6.399913 -1.185194 1.665993 -8.314851 -2.123751 2.510313 -31.067308 -5.017272 5.582183 12.587477 -0.521815 2.003506 9.002867 0.000000 0.000000 0.000000 42.485315 -17.156857 -57.357640 53.202529 -54.208205 28.752255 25.609656 -28.890905 14.118970 0.000000 0.000000 0.000000 -7.125000 0.000000 0.000000 -1.256479 14.396573 -0.904865 0.000000 0.000000 0.000000 -18.366741 -11.028283 43.856636 -67.590060 -58.014613 -40.721815 -17.359069 -6.896385 18.259124 0.000000 0.000000 0.000000 7.125000 0.000000 0.000000 10.474092 48.763502 -0.982132
38.891944 14.341255 -4.263335 178.844805 13.604415 -161.905940 0.000000 0.000000 0.000000 -8.592077 -1.744085 -66.323658 13.478427 18.948033 70.604941 1.080210 -4.282445 -18.683678 0.586367 -4.902837 -13.631537 0.000000 0.000000 0.000000 3.195646 -12.322537 -60.984712 -17.184728 -19.807092 81.742919 -0.251671 13.210055 -12.286783 -0.683172 5.282902 -14.717638 -6.758645 2.004977 28.243473 -3.614345 1.816444 6.321146 -0.880866 1.582653 -8.498171 -2.009802 2.560894 -31.060401 -5.070262 5.611647 12.675933 -0.553316 2.010391 9.038715 0.000000 0.000000 0.000000 44.828044 -17.499850 -58.739207 53.624322 -54.356626 29.094722 25.338387 -28.982049 13.952805 0.000000 0.000000 0.000000 -7.125000 0.000000 0.000000 -1.428719 14.612236 -1.022452 0.000000 0.000000 0.000000 -18.190828 -10.596480 44.379431 -68.742920 -58.221577 -41.700834 -17.086770 -6.990412 18.176238 0.000000 0.000000 0.000000 7.125000 0.000000 0.000000 10.706220 48.639283 -0.971182
38.951716 14.393538 -4.263873 179.066960 13.356958 -161.428835 0.000000 0.000000 0.000000 -8.098989 -1.925531 -66.301283 13.230085 18.863551 69.838546 1.045544 -4.100667 -18.391806 0.570253 -4.836121 -13.441792 0.000000 0.000000 0.000000 0.656877 -11.122042 -59.141082 -15.668125 -19.538522 77.238043 -0.688723 8.713380 -15.108453 -0.592038 4.926034 -13.697806 -6.752134 2.098659 28.368823 -3.384927 1.888402 6.151693 -0.664507 1.603858 -8.765971 -2.060101 2.440148 -31.014029 -5.137951 5.493253 12.947157 -0.587828 1.931919 9.128247 0.000000 0.000000 0.000000 46.577949 -18.206879 -60.129354 53.854178 -54.436379 29.281627 24.691430 -28.803929 14.409336 0.000000 0.000000 0.000000 -7.125000 0.000000 0.000000 -1.901179 14.196059 -1.378357 0.000000 0.000000 0.000000 -18.296761 -9.907344 44.142145 -69.848609 -58.408000 -42.641705 -17.090628 -7.244555 18.058995 0.000000 0.000000 0.000000 7.125000 0.000000 0.000000 10.665605 48.521148 -0.935962
39.042628 14.427546 -4.272765 179.389733 14.043917 -160.769705 0.000000 0.000000 0.000000 -7.611978 -1.175875 -66.491150 13.020772 18.789535 69.189959 1.031026 -4.218744 -18.245264 0.441544 -4.260827 -11.812075 0.000000 0.000000 0.000000 -1.683403 -8.707032 -57.428304 -13.949075 -19.092768 72.044015 -0.782789 8.110549 -15.927099 -0.730119 5.453109 -15.206987 -6.940538 2.516613 27.639642 -3.228327 2.399970 6.114310 -0.523173 1.821907 -8.480669 -2.791909 2.210573 -30.667376 -4.892468 5.414472 12.631610 -0.403565 1.910834 8.935126 0.000000 0.000000 0.000000 48.116644 -19.206156 -60.890217 54.309503 -54.591933 29.652494 23.924731 -28.752292 14.587273 0.000000 0.000000 0.000000 -7.125000 0.000000 0.000000 -2.433649 14.098056 -1.769153 0.000000 0.000000 0.000000 -18.725022 -9.393324 43.985721 -70.735268 -58.550159 -43.397426 -17.595968 -7.343816 18.236718 0.000000 0.000000 0.000000 7.125000 0.000000 0.000000 10.240852 48.776903 -0.960031
39.170970 14.453034 -4.235601 179.437573 14.190682 -160.640190 0.000000 0.000000 0.000000 -7.075187 -0.913088 -66.231470 12.783420 18.702398 68.451373 1.000723 -3.984760 -17.992095 0.443015 -4.270515 -11.838954 0.000000 0.000000 0.000000 -3.492230 -6.826026 -55.575878 -12.405301 -18.554371 67.265291 -0.730786 9.338008 -15.629805 -1.013332 6.404288 -17.962233 -7.158884 2.479212 27.799522 -3.215797 2.266639 6.067152 -0.349119 1.764369 -8.612505 -2.858015 2.333462 -30.668002 -4.872114 5.594392 12.461925 -0.358288 2.002464 8.874842 0.000000 0.000000 0.000000 49.378866 -19.540472 -60.343546 54.618940 -54.696531 29.904745 23.824454 -28.717830 15.016848 0.000000 0.000000 0.000000 -7.125000 0.000000 0.000000 -2.530534 13.647609 -1.863977 0.000000 0.000000 0.000000 -18.628382 -9.472628 44.219857 -70.808143 -58.561457 -43.459679 -16.507493 -7.598089 17.912134 0.000000 0.000000 0.000000 7.125000 0.000000 0.000000 11.169608 48.288039 -0.916375
